<?xml version="1.0" encoding="utf-8"?>
<svg xmlns="http://www.w3.org/2000/svg" style="margin: auto; background: none; display: block; shape-rendering: auto;" width="280" height="250" preserveAspectRatio="xMidYMid">
<style type="text/css">
  text {
    text-anchor: middle; font-size: 45px; opacity: 0;
  }
</style>
<g style="transform-origin: 140px 125px; transform: scale(2.25);">
<g transform="translate(140,125)">
  <g transform="translate(0,0)"><g class="path" style="transform: scale(0.91); transform-origin: -46.47px -1.52952px; animation: 1s linear -0.594s infinite normal forwards running breath-de52b040-b0f1-4b92-a2d3-d4285a05e7b5;"><path d="M10.12-1.70L10.12 0L1.80 0L1.80-14L3.70-14L3.70-1.70L10.12-1.70" fill="#ffffff" stroke="none" stroke-width="none" transform="translate(-52.430023193359375,5.470475036621085)" style="fill: rgb(255, 255, 255);"></path></g><g class="path" style="transform: scale(0.91); transform-origin: -35.4px -1.52952px; animation: 1s linear -0.528s infinite normal forwards running breath-de52b040-b0f1-4b92-a2d3-d4285a05e7b5;"><path d="M10.42-7.02L10.42-7.02L10.42-7.02Q10.42-8.56 10.87-9.88L10.87-9.88L10.87-9.88Q11.32-11.20 12.17-12.17L12.17-12.17L12.17-12.17Q13.02-13.14 14.24-13.69L14.24-13.69L14.24-13.69Q15.46-14.24 17.02-14.24L17.02-14.24L17.02-14.24Q18.56-14.24 19.79-13.67L19.79-13.67L19.79-13.67Q21.02-13.10 21.87-12.12L21.87-12.12L21.87-12.12Q22.72-11.14 23.18-9.83L23.18-9.83L23.18-9.83Q23.64-8.52 23.64-7.02L23.64-7.02L23.64-7.02Q23.64-5.52 23.19-4.20L23.19-4.20L23.19-4.20Q22.74-2.88 21.88-1.89L21.88-1.89L21.88-1.89Q21.02-0.90 19.80-0.33L19.80-0.33L19.80-0.33Q18.58 0.24 17.02 0.24L17.02 0.24L17.02 0.24Q15.46 0.24 14.24-0.33L14.24-0.33L14.24-0.33Q13.02-0.90 12.17-1.89L12.17-1.89L12.17-1.89Q11.32-2.88 10.87-4.20L10.87-4.20L10.87-4.20Q10.42-5.52 10.42-7.02zM12.36-7.02L12.36-7.02L12.36-7.02Q12.36-5.94 12.67-4.92L12.67-4.92L12.67-4.92Q12.98-3.90 13.58-3.12L13.58-3.12L13.58-3.12Q14.18-2.34 15.05-1.87L15.05-1.87L15.05-1.87Q15.92-1.40 17.02-1.40L17.02-1.40L17.02-1.40Q18.18-1.40 19.05-1.83L19.05-1.83L19.05-1.83Q19.92-2.26 20.51-3.01L20.51-3.01L20.51-3.01Q21.10-3.76 21.40-4.79L21.40-4.79L21.40-4.79Q21.70-5.82 21.70-7.02L21.70-7.02L21.70-7.02Q21.70-8.10 21.38-9.10L21.38-9.10L21.38-9.10Q21.06-10.10 20.46-10.88L20.46-10.88L20.46-10.88Q19.86-11.66 18.99-12.13L18.99-12.13L18.99-12.13Q18.12-12.60 17.02-12.60L17.02-12.60L17.02-12.60Q15.92-12.60 15.05-12.17L15.05-12.17L15.05-12.17Q14.18-11.74 13.58-10.99L13.58-10.99L13.58-10.99Q12.98-10.24 12.67-9.22L12.67-9.22L12.67-9.22Q12.36-8.20 12.36-7.02" fill="#ffffff" stroke="none" stroke-width="none" transform="translate(-52.430023193359375,5.470475036621085)" style="fill: rgb(255, 255, 255);"></path></g><g class="path" style="transform: scale(0.91); transform-origin: -21.51px -1.42952px; animation: 1s linear -0.462s infinite normal forwards running breath-de52b040-b0f1-4b92-a2d3-d4285a05e7b5;"><path d="M26.06 0.16L24.44-0.50L29.92-14L32-14L37.40-0.50L35.66 0.20L34.10-3.80L27.62-3.80L26.06 0.16zM30.86-12.12L28.22-5.40L33.48-5.40L30.86-12.12" fill="#ffffff" stroke="none" stroke-width="none" transform="translate(-52.430023193359375,5.470475036621085)" style="fill: rgb(255, 255, 255);"></path></g><g class="path" style="transform: scale(0.91); transform-origin: -7.61002px -1.52952px; animation: 1s linear -0.396s infinite normal forwards running breath-de52b040-b0f1-4b92-a2d3-d4285a05e7b5;"><path d="M39.40-0.04L39.40-13.96L39.40-13.96Q40.34-14.06 41.24-14.11L41.24-14.11L41.24-14.11Q42.14-14.16 43.30-14.16L43.30-14.16L43.30-14.16Q45.10-14.16 46.40-13.60L46.40-13.60L46.40-13.60Q47.70-13.04 48.56-12.06L48.56-12.06L48.56-12.06Q49.42-11.08 49.83-9.78L49.83-9.78L49.83-9.78Q50.24-8.48 50.24-7.02L50.24-7.02L50.24-7.02Q50.24-5.56 49.82-4.25L49.82-4.25L49.82-4.25Q49.40-2.94 48.53-1.96L48.53-1.96L48.53-1.96Q47.66-0.98 46.31-0.41L46.31-0.41L46.31-0.41Q44.96 0.16 43.08 0.16L43.08 0.16L43.08 0.16Q41.94 0.16 41.09 0.11L41.09 0.11L41.09 0.11Q40.24 0.06 39.40-0.04L39.40-0.04zM43.24-12.52L43.24-12.52L43.24-12.52Q42.66-12.52 42.18-12.49L42.18-12.49L42.18-12.49Q41.70-12.46 41.30-12.42L41.30-12.42L41.30-1.60L41.30-1.60Q41.72-1.54 42.18-1.52L42.18-1.52L42.18-1.52Q42.64-1.50 43.14-1.50L43.14-1.50L43.14-1.50Q44.48-1.50 45.46-1.91L45.46-1.91L45.46-1.91Q46.44-2.32 47.07-3.05L47.07-3.05L47.07-3.05Q47.70-3.78 48-4.79L48-4.79L48-4.79Q48.30-5.80 48.30-7.02L48.30-7.02L48.30-7.02Q48.30-8.10 48-9.09L48-9.09L48-9.09Q47.70-10.08 47.08-10.85L47.08-10.85L47.08-10.85Q46.46-11.62 45.50-12.07L45.50-12.07L45.50-12.07Q44.54-12.52 43.24-12.52" fill="#ffffff" stroke="none" stroke-width="none" transform="translate(-52.430023193359375,5.470475036621085)" style="fill: rgb(255, 255, 255);"></path></g><g class="path" style="transform: scale(0.91); transform-origin: 1.55998px -1.52952px; animation: 1s linear -0.33s infinite normal forwards running breath-de52b040-b0f1-4b92-a2d3-d4285a05e7b5;"><path d="M54.94 0L53.04 0L53.04-14L54.94-14L54.94 0" fill="#ffffff" stroke="none" stroke-width="none" transform="translate(-52.430023193359375,5.470475036621085)" style="fill: rgb(255, 255, 255);"></path></g><g class="path" style="transform: scale(0.91); transform-origin: 11.36px -1.52952px; animation: 1s linear -0.264s infinite normal forwards running breath-de52b040-b0f1-4b92-a2d3-d4285a05e7b5;"><path d="M66.56 0L60.34-11.56L60.34 0L58.54 0L58.54-14L61.06-14L67.24-2.36L67.24-14L69.04-14L69.04 0L66.56 0" fill="#ffffff" stroke="none" stroke-width="none" transform="translate(-52.430023193359375,5.470475036621085)" style="fill: rgb(255, 255, 255);"></path></g><g class="path" style="transform: scale(0.91); transform-origin: 25px -1.52952px; animation: 1s linear -0.198s infinite normal forwards running breath-de52b040-b0f1-4b92-a2d3-d4285a05e7b5;"><path d="M78.32-5.92L78.32-7.42L83.02-7.42L83.02 0L81.34 0L81.34-1.40L81.34-1.40Q80.64-0.78 79.64-0.27L79.64-0.27L79.64-0.27Q78.64 0.24 77.42 0.24L77.42 0.24L77.42 0.24Q76.20 0.24 75.18-0.24L75.18-0.24L75.18-0.24Q74.16-0.72 73.42-1.62L73.42-1.62L73.42-1.62Q72.68-2.52 72.26-3.79L72.26-3.79L72.26-3.79Q71.84-5.06 71.84-6.64L71.84-6.64L71.84-6.64Q71.84-8.32 72.27-9.71L72.27-9.71L72.27-9.71Q72.70-11.10 73.52-12.11L73.52-12.11L73.52-12.11Q74.34-13.12 75.53-13.68L75.53-13.68L75.53-13.68Q76.72-14.24 78.24-14.24L78.24-14.24L78.24-14.24Q79.56-14.24 80.57-13.92L80.57-13.92L80.57-13.92Q81.58-13.60 82.48-13.10L82.48-13.10L81.78-11.52L81.78-11.52Q80.94-11.98 80.08-12.28L80.08-12.28L80.08-12.28Q79.22-12.58 78.14-12.58L78.14-12.58L78.14-12.58Q77.20-12.58 76.40-12.20L76.40-12.20L76.40-12.20Q75.60-11.82 75.02-11.08L75.02-11.08L75.02-11.08Q74.44-10.34 74.11-9.25L74.11-9.25L74.11-9.25Q73.78-8.16 73.78-6.76L73.78-6.76L73.78-6.76Q73.78-5.50 74.08-4.51L74.08-4.51L74.08-4.51Q74.38-3.52 74.92-2.83L74.92-2.83L74.92-2.83Q75.46-2.14 76.21-1.78L76.21-1.78L76.21-1.78Q76.96-1.42 77.86-1.42L77.86-1.42L77.86-1.42Q78.42-1.42 78.92-1.55L78.92-1.55L78.92-1.55Q79.42-1.68 79.84-1.89L79.84-1.89L79.84-1.89Q80.26-2.10 80.61-2.35L80.61-2.35L80.61-2.35Q80.96-2.60 81.22-2.86L81.22-2.86L81.22-5.92L78.32-5.92" fill="#ffffff" stroke="none" stroke-width="none" transform="translate(-52.430023193359375,5.470475036621085)" style="fill: rgb(255, 255, 255);"></path></g><g class="path" style="transform: scale(0.91); transform-origin: 40.89px 4.37048px; animation: 1s linear -0.132s infinite normal forwards running breath-de52b040-b0f1-4b92-a2d3-d4285a05e7b5;"><path d="M91.98-1.10L91.98-1.10L91.98-1.10Q91.98-1.72 92.33-2.08L92.33-2.08L92.33-2.08Q92.68-2.44 93.32-2.44L93.32-2.44L93.32-2.44Q93.84-2.44 94.25-2.04L94.25-2.04L94.25-2.04Q94.66-1.64 94.66-1.10L94.66-1.10L94.66-1.10Q94.66-0.50 94.28-0.13L94.28-0.13L94.28-0.13Q93.90 0.24 93.32 0.24L93.32 0.24L93.32 0.24Q92.78 0.24 92.38-0.16L92.38-0.16L92.38-0.16Q91.98-0.56 91.98-1.10" fill="#ffffff" stroke="none" stroke-width="none" transform="translate(-52.430023193359375,5.470475036621085)" style="fill: rgb(255, 255, 255);"></path></g><g class="path" style="transform: scale(0.91); transform-origin: 46.89px 4.37048px; animation: 1s linear -0.066s infinite normal forwards running breath-de52b040-b0f1-4b92-a2d3-d4285a05e7b5;"><path d="M97.98-1.10L97.98-1.10L97.98-1.10Q97.98-1.72 98.33-2.08L98.33-2.08L98.33-2.08Q98.68-2.44 99.32-2.44L99.32-2.44L99.32-2.44Q99.84-2.44 100.25-2.04L100.25-2.04L100.25-2.04Q100.66-1.64 100.66-1.10L100.66-1.10L100.66-1.10Q100.66-0.50 100.28-0.13L100.28-0.13L100.28-0.13Q99.90 0.24 99.32 0.24L99.32 0.24L99.32 0.24Q98.78 0.24 98.38-0.16L98.38-0.16L98.38-0.16Q97.98-0.56 97.98-1.10" fill="#ffffff" stroke="none" stroke-width="none" transform="translate(-52.430023193359375,5.470475036621085)" style="fill: rgb(255, 255, 255);"></path></g><g class="path" style="transform: scale(0.91); transform-origin: 52.89px 4.37048px; animation: 1s linear 0s infinite normal forwards running breath-de52b040-b0f1-4b92-a2d3-d4285a05e7b5;"><path d="M103.98-1.10L103.98-1.10L103.98-1.10Q103.98-1.72 104.33-2.08L104.33-2.08L104.33-2.08Q104.68-2.44 105.32-2.44L105.32-2.44L105.32-2.44Q105.84-2.44 106.25-2.04L106.25-2.04L106.25-2.04Q106.66-1.64 106.66-1.10L106.66-1.10L106.66-1.10Q106.66-0.50 106.28-0.13L106.28-0.13L106.28-0.13Q105.90 0.24 105.32 0.24L105.32 0.24L105.32 0.24Q104.78 0.24 104.38-0.16L104.38-0.16L104.38-0.16Q103.98-0.56 103.98-1.10" fill="#ffffff" stroke="none" stroke-width="none" transform="translate(-52.430023193359375,5.470475036621085)" style="fill: rgb(255, 255, 255);"></path></g></g>
</g>
</g>
<style id="breath-de52b040-b0f1-4b92-a2d3-d4285a05e7b5" data-anikit="">@keyframes breath-de52b040-b0f1-4b92-a2d3-d4285a05e7b5
{
  0% {
    animation-timing-function: cubic-bezier(0.9647,0.2413,-0.0705,0.7911);
    transform: scale(0.9099999999999999);
  }
  51% {
    animation-timing-function: cubic-bezier(0.9226,0.2631,-0.0308,0.7628);
    transform: scale(1.02994);
  }
  100% {
    transform: scale(0.9099999999999999);
  }
}</style></svg>